<?xml version="1.0" standalone="no"?><svg xmlns="http://www.w3.org/2000/svg" viewBox="0 0 1440 320"><path fill="#ffd700" fill-opacity="1" d="M0,320L24,314.7C48,309,96,299,144,266.7C192,235,240,181,288,165.3C336,149,384,171,432,186.7C480,203,528,213,576,218.7C624,224,672,224,720,218.7C768,213,816,203,864,176C912,149,960,107,1008,106.7C1056,107,1104,149,1152,154.7C1200,160,1248,128,1296,133.3C1344,139,1392,181,1416,202.7L1440,224L1440,0L1416,0C1392,0,1344,0,1296,0C1248,0,1200,0,1152,0C1104,0,1056,0,1008,0C960,0,912,0,864,0C816,0,768,0,720,0C672,0,624,0,576,0C528,0,480,0,432,0C384,0,336,0,288,0C240,0,192,0,144,0C96,0,48,0,24,0L0,0Z"></path></svg>